<svg version="1.1" id="Layer_1" xmlns="http://www.w3.org/2000/svg" xmlns:xlink="http://www.w3.org/1999/xlink" x="0px" y="0px"
	 width="100%" viewBox="0 0 834 790" enable-background="new 0 0 834 790" xml:space="preserve">
<path fill="#000000" opacity="1.000000" stroke="none" 
	d="
M455.000000,791.000000 
	C303.333374,791.000000 152.166763,791.000000 1.000101,791.000000 
	C1.000068,527.666809 1.000068,264.333588 1.000034,1.000278 
	C278.999786,1.000185 556.999573,1.000185 834.999512,1.000093 
	C834.999695,264.333038 834.999695,527.666077 834.999878,790.999573 
	C708.500000,791.000000 582.000000,791.000000 455.000000,791.000000 
M182.500000,121.006798 
	C168.886261,121.006798 155.272507,121.006798 141.504486,121.006798 
	C141.504486,127.586929 141.504486,133.646530 141.504486,140.004639 
	C143.618210,140.004639 145.431412,140.004639 147.244614,140.004639 
	C235.743454,140.004654 324.242310,139.977051 412.741089,140.045441 
	C422.060181,140.052643 431.403259,140.299301 440.692963,140.997437 
	C466.920654,142.968430 490.270050,152.428009 510.455750,169.259293 
	C512.814087,171.225677 514.818298,175.146393 514.831116,178.170212 
	C515.087219,238.668335 515.076538,299.167969 514.866943,359.666443 
	C514.857422,362.413086 513.189514,366.010071 511.086761,367.761932 
	C488.235931,386.799164 461.952271,396.893463 432.050537,396.991730 
	C410.551086,397.062378 389.051300,397.040497 367.551788,397.100983 
	C364.782104,397.108765 362.013123,397.363525 358.504272,397.541382 
	C359.770599,399.592499 360.562744,400.969910 361.443359,402.288239 
	C386.355591,439.582123 411.299500,476.854889 436.190521,514.162903 
	C464.860474,557.135071 493.473846,600.144897 522.133484,643.123962 
	C538.000977,666.919312 560.678528,679.779846 588.680908,682.813843 
	C618.275269,686.020386 643.686707,675.784180 665.837646,655.992981 
	C661.480713,651.318359 657.089172,646.606628 652.954590,642.170654 
	C647.559692,645.981628 642.763489,649.911560 637.461487,652.962341 
	C632.199890,655.989868 626.557068,658.481201 620.849670,660.576416 
	C613.403198,663.309937 611.630005,662.491150 607.200562,655.853027 
	C592.541992,633.885498 577.921143,611.892822 563.268982,589.921021 
	C525.852295,533.812134 488.423767,477.711151 451.015930,421.596405 
	C449.803284,419.777344 448.763672,417.842926 447.752808,416.145966 
	C458.112091,413.278503 468.012665,411.162079 477.480255,407.819305 
	C558.081970,379.361053 592.703125,299.494293 570.842834,225.330765 
	C552.762268,163.990494 494.496338,121.078323 430.496765,121.027023 
	C348.164551,120.961037 265.832245,121.008308 182.500000,121.006798 
M250.848801,576.499939 
	C250.850052,577.332947 250.851273,578.165894 250.852570,578.998901 
	C250.889938,602.993713 250.957550,626.988464 250.947845,650.983276 
	C250.944580,659.060120 249.110870,661.524902 241.638931,663.364136 
	C234.737320,665.063049 227.749863,666.413818 220.851624,668.125061 
	C219.502380,668.459778 217.391418,669.678711 217.331223,670.600708 
	C216.990219,675.824158 217.166245,681.081360 217.166245,686.345032 
	C218.587021,686.486633 219.239166,686.629028 219.885086,686.604919 
	C252.225418,685.396790 277.340698,670.652161 296.115570,644.930542 
	C309.163971,627.054260 312.722656,606.176086 312.740173,584.565247 
	C312.821320,484.586884 312.854187,384.608429 312.825043,284.630035 
	C312.821594,272.810242 312.601685,260.977173 312.017731,249.173233 
	C310.018127,208.755585 286.244141,176.692612 248.126450,163.302704 
	C238.371948,159.876160 228.310043,156.987656 217.580597,158.257996 
	C217.580597,164.196091 217.580597,169.800400 217.580597,175.565445 
	C225.838776,177.387253 233.901215,179.140854 241.951248,180.949768 
	C248.339661,182.385269 250.349182,184.658493 250.888199,191.085678 
	C251.040909,192.906830 250.954437,194.749191 250.953934,196.581833 
	C250.920029,322.887848 250.883667,449.193878 250.848801,576.499939 
z"/>
<path fill="#F2F2F2" opacity="1.000000" stroke="none" 
	d="
M183.000000,121.006798 
	C265.832245,121.008308 348.164551,120.961037 430.496765,121.027023 
	C494.496338,121.078323 552.762268,163.990494 570.842834,225.330765 
	C592.703125,299.494293 558.081970,379.361053 477.480255,407.819305 
	C468.012665,411.162079 458.112091,413.278503 447.752808,416.145966 
	C448.763672,417.842926 449.803284,419.777344 451.015930,421.596405 
	C488.423767,477.711151 525.852295,533.812134 563.268982,589.921021 
	C577.921143,611.892822 592.541992,633.885498 607.200562,655.853027 
	C611.630005,662.491150 613.403198,663.309937 620.849670,660.576416 
	C626.557068,658.481201 632.199890,655.989868 637.461487,652.962341 
	C642.763489,649.911560 647.559692,645.981628 652.954590,642.170654 
	C657.089172,646.606628 661.480713,651.318359 665.837646,655.992981 
	C643.686707,675.784180 618.275269,686.020386 588.680908,682.813843 
	C560.678528,679.779846 538.000977,666.919312 522.133484,643.123962 
	C493.473846,600.144897 464.860474,557.135071 436.190521,514.162903 
	C411.299500,476.854889 386.355591,439.582123 361.443359,402.288239 
	C360.562744,400.969910 359.770599,399.592499 358.504272,397.541382 
	C362.013123,397.363525 364.782104,397.108765 367.551788,397.100983 
	C389.051300,397.040497 410.551086,397.062378 432.050537,396.991730 
	C461.952271,396.893463 488.235931,386.799164 511.086761,367.761932 
	C513.189514,366.010071 514.857422,362.413086 514.866943,359.666443 
	C515.076538,299.167969 515.087219,238.668335 514.831116,178.170212 
	C514.818298,175.146393 512.814087,171.225677 510.455750,169.259293 
	C490.270050,152.428009 466.920654,142.968430 440.692963,140.997437 
	C431.403259,140.299301 422.060181,140.052643 412.741089,140.045441 
	C324.242310,139.977051 235.743454,140.004654 147.244614,140.004639 
	C145.431412,140.004639 143.618210,140.004639 141.504486,140.004639 
	C141.504486,133.646530 141.504486,127.586929 141.504486,121.006798 
	C155.272507,121.006798 168.886261,121.006798 183.000000,121.006798 
M452.673431,504.844299 
	C481.788727,548.404785 510.874420,591.985107 540.034058,635.515869 
	C551.436584,652.537964 568.501709,659.937744 589.258850,663.956482 
	C587.811157,661.354126 587.090820,659.823303 586.164612,658.429260 
	C567.479553,630.305481 548.802185,602.176514 530.059998,574.090820 
	C496.175354,523.313721 462.262421,472.555450 428.290131,421.837006 
	C426.972076,419.869202 424.987183,417.011780 423.194183,416.921173 
	C413.540375,416.433685 403.848969,416.690552 393.625305,416.690552 
	C413.396362,446.235291 432.814484,475.252563 452.673431,504.844299 
M548.139404,214.443451 
	C544.736084,207.645554 540.855286,201.221146 534.363708,196.401825 
	C534.363708,245.236420 534.363708,293.635162 534.363708,342.033905 
	C534.859802,342.074036 535.355835,342.114197 535.851929,342.154327 
	C559.918945,301.960693 564.959473,259.701263 548.139404,214.443451 
z"/>
<path fill="#F8F8F8" opacity="1.000000" stroke="none" 
	d="
M250.848160,575.999878 
	C250.883667,449.193878 250.920029,322.887848 250.953934,196.581833 
	C250.954437,194.749191 251.040909,192.906830 250.888199,191.085678 
	C250.349182,184.658493 248.339661,182.385269 241.951248,180.949768 
	C233.901215,179.140854 225.838776,177.387253 217.580597,175.565445 
	C217.580597,169.800400 217.580597,164.196091 217.580597,158.257996 
	C228.310043,156.987656 238.371948,159.876160 248.126450,163.302704 
	C286.244141,176.692612 310.018127,208.755585 312.017731,249.173233 
	C312.601685,260.977173 312.821594,272.810242 312.825043,284.630035 
	C312.854187,384.608429 312.821320,484.586884 312.740173,584.565247 
	C312.722656,606.176086 309.163971,627.054260 296.115570,644.930542 
	C277.340698,670.652161 252.225418,685.396790 219.885086,686.604919 
	C219.239166,686.629028 218.587021,686.486633 217.166245,686.345032 
	C217.166245,681.081360 216.990219,675.824158 217.331223,670.600708 
	C217.391418,669.678711 219.502380,668.459778 220.851624,668.125061 
	C227.749863,666.413818 234.737320,665.063049 241.638931,663.364136 
	C249.110870,661.524902 250.944580,659.060120 250.947845,650.983276 
	C250.957550,626.988464 250.889938,602.993713 250.852570,578.998901 
	C250.851273,578.165894 250.850052,577.332947 250.848160,575.999878 
M270.051727,641.011108 
	C270.051727,642.427490 270.051727,643.843872 270.051727,645.260254 
	C270.532562,645.568054 271.013428,645.875793 271.494263,646.183594 
	C271.807220,645.411804 271.928955,644.460449 272.460815,643.894287 
	C287.756470,627.610962 294.028473,608.075623 294.003113,586.012634 
	C293.902069,498.013031 293.955200,410.013245 293.942413,322.013519 
	C293.939056,299.013824 294.143402,276.010651 293.806213,253.015610 
	C293.544830,235.187790 287.873749,219.061172 276.600952,205.079193 
	C274.826874,202.878754 272.842834,200.847595 270.955841,198.738174 
	C270.654510,199.036819 270.353149,199.335449 270.051788,199.634094 
	C270.051788,346.462402 270.051788,493.290710 270.051727,641.011108 
z"/>
<path fill="#0B0B0B" opacity="1.000000" stroke="none" 
	d="
M452.453003,504.557068 
	C432.814484,475.252563 413.396362,446.235291 393.625305,416.690552 
	C403.848969,416.690552 413.540375,416.433685 423.194183,416.921173 
	C424.987183,417.011780 426.972076,419.869202 428.290131,421.837006 
	C462.262421,472.555450 496.175354,523.313721 530.059998,574.090820 
	C548.802185,602.176514 567.479553,630.305481 586.164612,658.429260 
	C587.090820,659.823303 587.811157,661.354126 589.258850,663.956482 
	C568.501709,659.937744 551.436584,652.537964 540.034058,635.515869 
	C510.874420,591.985107 481.788727,548.404785 452.453003,504.557068 
z"/>
<path fill="#0C0C0C" opacity="1.000000" stroke="none" 
	d="
M548.323120,214.775848 
	C564.959473,259.701263 559.918945,301.960693 535.851929,342.154327 
	C535.355835,342.114197 534.859802,342.074036 534.363708,342.033905 
	C534.363708,293.635162 534.363708,245.236420 534.363708,196.401825 
	C540.855286,201.221146 544.736084,207.645554 548.323120,214.775848 
z"/>
<path fill="#090909" opacity="1.000000" stroke="none" 
	d="
M270.051758,640.565063 
	C270.051788,493.290710 270.051788,346.462402 270.051788,199.634094 
	C270.353149,199.335449 270.654510,199.036819 270.955841,198.738174 
	C272.842834,200.847595 274.826874,202.878754 276.600952,205.079193 
	C287.873749,219.061172 293.544830,235.187790 293.806213,253.015610 
	C294.143402,276.010651 293.939056,299.013824 293.942413,322.013519 
	C293.955200,410.013245 293.902069,498.013031 294.003113,586.012634 
	C294.028473,608.075623 287.756470,627.610962 272.460815,643.894287 
	C271.928955,644.460449 271.807220,645.411804 271.494263,646.183594 
	C271.013428,645.875793 270.532562,645.568054 270.051727,645.260254 
	C270.051727,643.843872 270.051727,642.427490 270.051758,640.565063 
z"/>
</svg>